<svg id="Layer_1" data-name="Layer 1" xmlns="http://www.w3.org/2000/svg" xmlns:xlink="http://www.w3.org/1999/xlink" viewBox="0 0 190.22 190.67"><defs><style>.cls-1{fill:none;}.cls-2{clip-path:url(#clip-path);}.cls-3{fill:#fff;}.cls-4{fill:#e30613;}.cls-5{fill:#e1251b;}</style><clipPath id="clip-path"><rect class="cls-1" x="-46.78" y="-44.8" width="283.46" height="283.46"/></clipPath></defs><title>HC slavia</title><g class="cls-2"><path class="cls-3" d="M190.22,95.33A95.11,95.11,0,1,1,95.11,0a95.23,95.23,0,0,1,95.11,95.33"/><path class="cls-4" d="M62.47,99l0,1.1c0,.5.23,12.42,9.46,26.52a49.8,49.8,0,0,0,19.54,17.5V99Z"/><polygon class="cls-4" points="96.21 116.13 105.52 116.11 108.54 125.33 111.52 116.09 121.22 116.07 113.36 110.38 116.34 101.14 108.5 106.87 100.63 101.18 103.65 110.4 96.21 116.13"/><polygon class="cls-4" points="48.47 60.69 42.56 56.74 38.88 62.25 44.79 66.2 42.51 69.62 28.37 60.17 30.65 56.76 36 60.33 39.69 54.82 34.33 51.24 36.62 47.83 50.76 57.28 48.47 60.69"/><path class="cls-4" d="M63.49,46.23a9,9,0,0,1-2.55,2.94,10.11,10.11,0,0,1-3.27,1.72A8.44,8.44,0,0,1,51,50.14a9.35,9.35,0,0,1-2.79-2.46,9.44,9.44,0,0,1-1.71-3.35,8.33,8.33,0,0,1-.18-3.43,8.57,8.57,0,0,1,1.22-3.21A10.48,10.48,0,0,1,53.2,33.3,6.78,6.78,0,0,1,56.57,33L56.08,37a3.48,3.48,0,0,0-1.92,0,5.09,5.09,0,0,0-3.08,2.4,4.75,4.75,0,0,0-.55,1.81,4.86,4.86,0,0,0,.21,1.92,6.3,6.3,0,0,0,2.57,3.31,5,5,0,0,0,1.8.69A4.52,4.52,0,0,0,57,47a4.62,4.62,0,0,0,1.77-.89,4.52,4.52,0,0,0,1.4-1.69,4.24,4.24,0,0,0,.39-1.88l3.91.37a8.13,8.13,0,0,1-.95,3.33"/><path class="cls-4" d="M81.69,26.2a3.72,3.72,0,0,0-1.59-.71,3.84,3.84,0,0,0-1.69,0,4.56,4.56,0,0,0-.79.26,2.32,2.32,0,0,0-.67.45,1.73,1.73,0,0,0-.42.65,1.38,1.38,0,0,0,0,.86,1.31,1.31,0,0,0,.35.65,1.51,1.51,0,0,0,.63.37,5.06,5.06,0,0,0,.9.19c.34,0,.72.07,1.14.1.6,0,1.24.12,1.9.19a6.88,6.88,0,0,1,1.87.5,4.84,4.84,0,0,1,1.58,1.08,4.09,4.09,0,0,1,1,1.95,5.46,5.46,0,0,1,.08,2.59,5.06,5.06,0,0,1-1,2.06,6.41,6.41,0,0,1-1.79,1.5,9,9,0,0,1-2.27.9,10.06,10.06,0,0,1-3.58.22,7.38,7.38,0,0,1-3.19-1.09l2-3.3a4.88,4.88,0,0,0,1.9.86,4.52,4.52,0,0,0,2.1,0,4.21,4.21,0,0,0,.84-.3,2.36,2.36,0,0,0,.65-.49A1.56,1.56,0,0,0,82,35a1.8,1.8,0,0,0,0-.89,1.32,1.32,0,0,0-.43-.73,2.15,2.15,0,0,0-.81-.43,5.23,5.23,0,0,0-1.19-.23c-.46,0-1-.09-1.57-.12a15.8,15.8,0,0,1-1.7-.23,5.33,5.33,0,0,1-1.58-.57,4.29,4.29,0,0,1-1.28-1.1,4.53,4.53,0,0,1-.82-1.81,4.68,4.68,0,0,1,0-2.49,4.88,4.88,0,0,1,1.08-2A6.45,6.45,0,0,1,75.43,23a9.66,9.66,0,0,1,2.24-.85,8.9,8.9,0,0,1,3-.19,7.66,7.66,0,0,1,2.93.9Z"/><polygon class="cls-4" points="91.23 37.57 91.49 20.57 95.62 20.63 95.42 34.06 102 34.16 101.94 37.74 91.23 37.57"/><path class="cls-4" d="M117.9,42.51l-.14-3.59-6.22-2.18-2.28,2.74L105.05,38l12.35-13.7,3.76,1.32,1,18.39Zm-.19-13.28-4,4.8,4,1.41Z"/><polygon class="cls-4" points="130.33 49.23 126.93 46.93 131.1 29.23 134.93 31.81 131.45 44.01 131.53 44.07 141.52 36.26 145.28 38.8 130.33 49.23"/><rect class="cls-4" x="135.25" y="48" width="17.01" height="4.13" transform="translate(4.11 110.66) rotate(-42.66)"/><path class="cls-4" d="M148,71.58l2.28-2.78-3.2-5.75-3.52.53-2.17-3.91,18.33-2,1.94,3.48L150.23,75.57Zm8.69-10-6.16.94,2.08,3.74Z"/><path class="cls-4" d="M34.79,110.65a4.33,4.33,0,0,1-2.13-.15,3.68,3.68,0,0,1-1.53-1,5.41,5.41,0,0,1-1-1.66,9.08,9.08,0,0,1-.54-2l-.25-1.68-5.27.78-.5-3.37,14-2.07.77,5.13a10,10,0,0,1,.09,2.17,5.09,5.09,0,0,1-.48,1.84,3.49,3.49,0,0,1-1.14,1.36,4.51,4.51,0,0,1-2,.73m-.52-3.37A1.51,1.51,0,0,0,35,107a1.29,1.29,0,0,0,.42-.61,2,2,0,0,0,.12-.79,5.42,5.42,0,0,0-.07-.89l-.22-1.48-3.29.49.21,1.42a6.23,6.23,0,0,0,.21.9,2.5,2.5,0,0,0,.4.74,1.43,1.43,0,0,0,.6.46,1.56,1.56,0,0,0,.85.08"/><path class="cls-4" d="M30.19,126.18l3.95-5-.46-1.07-5.15,2.2-1.3-3.06,13-5.55,2.11,4.95a8.87,8.87,0,0,1,.59,1.9,5.18,5.18,0,0,1,0,1.88,3.74,3.74,0,0,1-.73,1.64,4,4,0,0,1-1.69,1.22,3.73,3.73,0,0,1-2.52.24,4.24,4.24,0,0,1-2.13-1.43l-4.11,5.76Zm9-4a1.38,1.38,0,0,0,.65-.51A1.42,1.42,0,0,0,40,121a2.32,2.32,0,0,0-.08-.77,5.07,5.07,0,0,0-.25-.75L39,117.8l-3,1.3.63,1.49a5.11,5.11,0,0,0,.41.76,2.44,2.44,0,0,0,.54.64,1.43,1.43,0,0,0,.71.34,1.49,1.49,0,0,0,.9-.13"/><path class="cls-4" d="M41.63,143.6,43.1,141l-3.42-4.26-2.81.93-2.33-2.88,14.71-4.24,2.08,2.58L44,146.55Zm5.69-9.44-4.9,1.64,2.22,2.77Z"/><polygon class="cls-4" points="56.55 156.53 59.89 151.66 55.36 148.54 52.02 153.41 49.21 151.47 57.2 139.84 60.01 141.78 56.98 146.18 61.52 149.3 64.54 144.89 67.35 146.82 59.36 158.46 56.55 156.53"/><path class="cls-4" d="M76.64,165.21l-.19-3-5.21-1.67-1.83,2.32-3.53-1.13,10-11.63,3.15,1,1.27,15.23Zm-.44-11L73,158.27l3.38,1.08Z"/><path class="cls-4" d="M31.47,96a63,63,0,0,1,5.2-25.13l-2.48-1.42A65.88,65.88,0,0,0,28.62,96c0,.23,0,.46,0,.7l2.84-.16c0-.18,0-.36,0-.54"/><path class="cls-4" d="M133.76,150a5.91,5.91,0,0,1,1.66,2.77,5.26,5.26,0,0,1-.13,3,7.49,7.49,0,0,1-1.82,2.85,11.92,11.92,0,0,1-3.4,2.37,16.65,16.65,0,0,1-4.41,1.39,17.71,17.71,0,0,1-4.53.19,14.68,14.68,0,0,1-4.13-1,9.39,9.39,0,0,1-3.2-2.06,5.89,5.89,0,0,1-1.61-2.79,5.28,5.28,0,0,1,.19-3,7.56,7.56,0,0,1,1.86-2.82,12,12,0,0,1,3.4-2.33,16.92,16.92,0,0,1,4.35-1.36,18.18,18.18,0,0,1,4.47-.19,14.73,14.73,0,0,1,4.09.93,9.58,9.58,0,0,1,3.21,2"/><path class="cls-4" d="M161.29,96a66,66,0,0,0-3.74-21.91l-2.1,2.73a63.24,63.24,0,0,1-20.55,68.44l2.71,1.46A66.18,66.18,0,0,0,161.29,96"/><path class="cls-4" d="M180,95.26A85,85,0,0,0,34.82,35.13,85,85,0,0,0,95,180.3c2.8,0,5.58-.14,8.34-.4l-3.11-3.55c-1.73.11-3.48.18-5.23.18A81.27,81.27,0,0,1,37.49,37.79,81.27,81.27,0,0,1,152.42,152.72,80.64,80.64,0,0,1,119,172.91c-4-3.28-18.14-15.08-21.88-25.51a51.58,51.58,0,1,0-5.65-.07v-3.25A48.3,48.3,0,0,1,55.49,68l.17.19s3.38,3.9,6,11.86c3,9,.86,18.85.83,18.93s3.82-2.45,6.42-3.76A62.91,62.91,0,0,1,93.7,90.47h0V99h0v52.09a52,52,0,0,0,0,6.51,7.9,7.9,0,0,0,2.08,4.85c1.31,1.63,9.23,11.34,15.93,16.91,6.54,5.43,7.72,5.32,10.2,2,1.56-2.09,1.42-3.75.19-5.44A85.14,85.14,0,0,0,180,95.26m-116-16A44.12,44.12,0,0,0,58.63,68c2.48-.56,7.69-.87,13.79,3.71a12.52,12.52,0,0,1,5,7.43c0,.22.07.44.11.66a7.42,7.42,0,0,1,.08,1,6.75,6.75,0,0,1-2.24,5.47c-3.95,3.19-8.77-.14-10-1.1a33.52,33.52,0,0,0-1.37-6M93.73,88h0c-14.27,0-23.86,3.84-28.15,6,.09-1,.15-2.23.15-3.53,0-.64,0-1.32-.07-2,3,1.72,7.49,2.92,11.24-.12a8.54,8.54,0,0,0,2.73-4.18l.16.19a9.53,9.53,0,0,0,6.88,3.1c3,0,5.49-1.83,7.09-3.44Zm0-7.88-.09.13s-3.08,4.7-7,4.7a7.15,7.15,0,0,1-5.09-2.31,6.71,6.71,0,0,1-1.62-3.22c0-.19-.06-.38-.09-.57a7.77,7.77,0,0,1,0-1.61c.65-10.78,7.48-15.62,14-15.64Zm0-21c-6.92,0-14.16,4.61-16,14.71a16.63,16.63,0,0,0-3.87-4C66.21,63.93,59.64,65,57.14,65.8A48.23,48.23,0,0,1,93.75,47.56Zm7.15,84.82c-1.24.16-2.49.27-3.76.33a39,39,0,0,0,3.76-1.82Zm6.31-1.19c-1.34.35-2.71.63-4.1.87v-2.45a49.62,49.62,0,0,0,4.1-2.84Zm6.3-2.13c-1.33.55-2.7,1-4.09,1.49V136.4a48.07,48.07,0,0,0,4.09-4Zm6.11-3.09c-1.26.76-2.56,1.46-3.89,2.1v-9.82c.76-1,1.52-2,2.24-3.12.59-.9,1.14-1.78,1.65-2.65Zm6.26-26.72V133a50,50,0,0,1-4,3V119.82c4-9.11,4.36-13.38,4.63-17.07Zm13.56-33.78a48.4,48.4,0,0,1,0,37.88Zm-5-8.91a47.1,47.1,0,0,1,2.82,4.41v46.89a48.33,48.33,0,0,1-3.49,5.4s0-53.68,0-54.52c0-1.68.72-2.18.72-2.18m-6.31-7.31a48.62,48.62,0,0,1,4.65,5.08,15.14,15.14,0,0,0-4.65-.6Zm3.2,7.3a43.71,43.71,0,0,0-5.35,11.23,33.52,33.52,0,0,0-1.37,6c-1.24,1-6.06,4.29-10,1.1a6.76,6.76,0,0,1-2.25-5.47c0-.35,0-.7.08-1s.08-.44.11-.66a12.49,12.49,0,0,1,5-7.43c6.1-4.58,11.3-4.27,13.79-3.71m-9.45-12.3a47.79,47.79,0,0,1,4,3v6.62a20,20,0,0,0-4,1.08Zm-6.11-3.49c1.33.64,2.63,1.34,3.89,2.09V67.42a25.55,25.55,0,0,0-3.57,2.26l-.32.26Zm-6.31-2.49c1.39.44,2.76.94,4.09,1.5V72a16.27,16.27,0,0,0-1.33,1.7,20.48,20.48,0,0,0-2.76-7.26Zm-6.31-1.51c1.39.24,2.76.53,4.1.88V63.65a15.42,15.42,0,0,0-4.1-3Zm-6.9-.66c1.58,0,3.15.15,4.7.34h0V59.78A15.8,15.8,0,0,0,96.21,59Zm0,14.84v-.85c6.47.05,13.26,4.89,13.92,15.64a8.55,8.55,0,0,1-.06,1.61l-.09.57a6.71,6.71,0,0,1-1.62,3.22,7.15,7.15,0,0,1-5.09,2.31c-3.93,0-7-4.65-7-4.7l-.05-.08Zm0,21.61c1.6,1.61,4.07,3.41,7.06,3.41a9.53,9.53,0,0,0,6.88-3.1c.06-.06.11-.13.16-.19A8.54,8.54,0,0,0,113,88.31c3.75,3,8.23,1.84,11.24.12,0,.69-.07,1.37-.07,2,0,1.31.07,2.5.16,3.53-4.28-2.17-13.87-6-28.16-6Zm0,6.46A62.87,62.87,0,0,1,121,95.21c.78.3,7.07,3.76,7.07,3.76s-2.78-9.9.18-18.93a63.66,63.66,0,0,1,3-7.2c.6-1.34,1.1-2.76,1.18-2.9a16.79,16.79,0,0,0-1,3.69v53.83a48.05,48.05,0,0,1-3.42,3.57V99H96.21Zm0,10.67h29c-.29,3.21-1.73,13.1-9,24.26a45.63,45.63,0,0,1-20,16.79Z"/><path class="cls-5" d="M62.47,99l0,1.1c0,.5.23,12.42,9.46,26.52a49.8,49.8,0,0,0,19.54,17.5V99Z"/><polygon class="cls-5" points="96.21 116.13 105.52 116.11 108.54 125.33 111.52 116.09 121.22 116.07 113.36 110.38 116.34 101.14 108.5 106.87 100.63 101.18 103.65 110.4 96.21 116.13"/><polygon class="cls-5" points="48.47 60.69 42.56 56.74 38.88 62.25 44.79 66.2 42.51 69.62 28.37 60.17 30.65 56.76 36 60.33 39.69 54.82 34.33 51.24 36.62 47.83 50.76 57.28 48.47 60.69"/><path class="cls-5" d="M63.49,46.23a9,9,0,0,1-2.55,2.94,10.11,10.11,0,0,1-3.27,1.72A8.44,8.44,0,0,1,51,50.14a9.35,9.35,0,0,1-2.79-2.46,9.44,9.44,0,0,1-1.71-3.35,8.33,8.33,0,0,1-.18-3.43,8.57,8.57,0,0,1,1.22-3.21A10.48,10.48,0,0,1,53.2,33.3,6.78,6.78,0,0,1,56.57,33L56.08,37a3.48,3.48,0,0,0-1.92,0,5.09,5.09,0,0,0-3.08,2.4,4.75,4.75,0,0,0-.55,1.81,4.86,4.86,0,0,0,.21,1.92,6.3,6.3,0,0,0,2.57,3.31,5,5,0,0,0,1.8.69A4.52,4.52,0,0,0,57,47a4.62,4.62,0,0,0,1.77-.89,4.52,4.52,0,0,0,1.4-1.69,4.24,4.24,0,0,0,.39-1.88l3.91.37a8.13,8.13,0,0,1-.95,3.33"/><path class="cls-5" d="M81.69,26.2a3.72,3.72,0,0,0-1.59-.71,3.84,3.84,0,0,0-1.69,0,4.56,4.56,0,0,0-.79.26,2.32,2.32,0,0,0-.67.45,1.73,1.73,0,0,0-.42.65,1.38,1.38,0,0,0,0,.86,1.31,1.31,0,0,0,.35.65,1.51,1.51,0,0,0,.63.37,5.06,5.06,0,0,0,.9.19c.34,0,.72.07,1.14.1.6,0,1.24.12,1.9.19a6.88,6.88,0,0,1,1.87.5,4.84,4.84,0,0,1,1.58,1.08,4.09,4.09,0,0,1,1,1.95,5.46,5.46,0,0,1,.08,2.59,5.06,5.06,0,0,1-1,2.06,6.41,6.41,0,0,1-1.79,1.5,9,9,0,0,1-2.27.9,10.06,10.06,0,0,1-3.58.22,7.38,7.38,0,0,1-3.19-1.09l2-3.3a4.88,4.88,0,0,0,1.9.86,4.52,4.52,0,0,0,2.1,0,4.21,4.21,0,0,0,.84-.3,2.36,2.36,0,0,0,.65-.49A1.56,1.56,0,0,0,82,35a1.8,1.8,0,0,0,0-.89,1.32,1.32,0,0,0-.43-.73,2.15,2.15,0,0,0-.81-.43,5.23,5.23,0,0,0-1.19-.23c-.46,0-1-.09-1.57-.12a15.8,15.8,0,0,1-1.7-.23,5.33,5.33,0,0,1-1.58-.57,4.29,4.29,0,0,1-1.28-1.1,4.53,4.53,0,0,1-.82-1.81,4.68,4.68,0,0,1,0-2.49,4.88,4.88,0,0,1,1.08-2A6.45,6.45,0,0,1,75.43,23a9.66,9.66,0,0,1,2.24-.85,8.9,8.9,0,0,1,3-.19,7.66,7.66,0,0,1,2.93.9Z"/><polygon class="cls-5" points="91.23 37.57 91.49 20.57 95.62 20.63 95.42 34.06 102 34.16 101.94 37.74 91.23 37.57"/><path class="cls-5" d="M117.9,42.51l-.14-3.59-6.22-2.18-2.28,2.74L105.05,38l12.35-13.7,3.76,1.32,1,18.39Zm-.19-13.28-4,4.8,4,1.41Z"/><polygon class="cls-5" points="130.33 49.23 126.93 46.93 131.1 29.23 134.93 31.81 131.45 44.01 131.53 44.07 141.52 36.26 145.28 38.8 130.33 49.23"/><rect class="cls-5" x="135.25" y="48" width="17.01" height="4.13" transform="translate(4.11 110.66) rotate(-42.66)"/><path class="cls-5" d="M148,71.58l2.28-2.78-3.2-5.75-3.52.53-2.17-3.91,18.33-2,1.94,3.48L150.23,75.57Zm8.69-10-6.16.94,2.08,3.74Z"/><path class="cls-5" d="M34.79,110.65a4.33,4.33,0,0,1-2.13-.15,3.68,3.68,0,0,1-1.53-1,5.41,5.41,0,0,1-1-1.66,9.08,9.08,0,0,1-.54-2l-.25-1.68-5.27.78-.5-3.37,14-2.07.77,5.13a10,10,0,0,1,.09,2.17,5.09,5.09,0,0,1-.48,1.84,3.49,3.49,0,0,1-1.14,1.36,4.51,4.51,0,0,1-2,.73m-.52-3.37A1.51,1.51,0,0,0,35,107a1.29,1.29,0,0,0,.42-.61,2,2,0,0,0,.12-.79,5.42,5.42,0,0,0-.07-.89l-.22-1.48-3.29.49.21,1.42a6.23,6.23,0,0,0,.21.9,2.5,2.5,0,0,0,.4.74,1.43,1.43,0,0,0,.6.46,1.56,1.56,0,0,0,.85.08"/><path class="cls-5" d="M30.19,126.18l3.95-5-.46-1.07-5.15,2.2-1.3-3.06,13-5.55,2.11,4.95a8.87,8.87,0,0,1,.59,1.9,5.18,5.18,0,0,1,0,1.88,3.74,3.74,0,0,1-.73,1.64,4,4,0,0,1-1.69,1.22,3.73,3.73,0,0,1-2.52.24,4.24,4.24,0,0,1-2.13-1.43l-4.11,5.76Zm9-4a1.38,1.38,0,0,0,.65-.51A1.42,1.42,0,0,0,40,121a2.32,2.32,0,0,0-.08-.77,5.07,5.07,0,0,0-.25-.75L39,117.8l-3,1.3.63,1.49a5.11,5.11,0,0,0,.41.76,2.44,2.44,0,0,0,.54.64,1.43,1.43,0,0,0,.71.34,1.49,1.49,0,0,0,.9-.13"/><path class="cls-5" d="M41.63,143.6,43.1,141l-3.42-4.26-2.81.93-2.33-2.88,14.71-4.24,2.08,2.58L44,146.55Zm5.69-9.44-4.9,1.64,2.22,2.77Z"/><polygon class="cls-5" points="56.55 156.53 59.89 151.66 55.36 148.54 52.02 153.41 49.21 151.47 57.2 139.84 60.01 141.78 56.98 146.18 61.52 149.3 64.54 144.89 67.35 146.82 59.36 158.46 56.55 156.53"/><path class="cls-5" d="M76.64,165.21l-.19-3-5.21-1.67-1.83,2.32-3.53-1.13,10-11.63,3.15,1,1.27,15.23Zm-.44-11L73,158.27l3.38,1.08Z"/><path class="cls-5" d="M31.47,96a63,63,0,0,1,5.2-25.13l-2.48-1.42A65.88,65.88,0,0,0,28.62,96c0,.23,0,.46,0,.7l2.84-.16c0-.18,0-.36,0-.54"/><path class="cls-5" d="M133.76,150a5.91,5.91,0,0,1,1.66,2.77,5.26,5.26,0,0,1-.13,3,7.49,7.49,0,0,1-1.82,2.85,11.92,11.92,0,0,1-3.4,2.37,16.65,16.65,0,0,1-4.41,1.39,17.71,17.71,0,0,1-4.53.19,14.68,14.68,0,0,1-4.13-1,9.39,9.39,0,0,1-3.2-2.06,5.89,5.89,0,0,1-1.61-2.79,5.28,5.28,0,0,1,.19-3,7.56,7.56,0,0,1,1.86-2.82,12,12,0,0,1,3.4-2.33,16.92,16.92,0,0,1,4.35-1.36,18.18,18.18,0,0,1,4.47-.19,14.73,14.73,0,0,1,4.09.93,9.58,9.58,0,0,1,3.21,2"/><path class="cls-5" d="M161.29,96a66,66,0,0,0-3.74-21.91l-2.1,2.73a63.24,63.24,0,0,1-20.55,68.44l2.71,1.46A66.18,66.18,0,0,0,161.29,96"/><path class="cls-5" d="M180,95.26A85,85,0,0,0,34.82,35.13,85,85,0,0,0,95,180.3c2.8,0,5.58-.14,8.34-.4l-3.11-3.55c-1.73.11-3.48.18-5.23.18A81.27,81.27,0,0,1,37.49,37.79,81.27,81.27,0,0,1,152.42,152.72,80.64,80.64,0,0,1,119,172.91c-4-3.28-18.14-15.08-21.88-25.51a51.58,51.58,0,1,0-5.65-.07v-3.25A48.3,48.3,0,0,1,55.49,68l.17.19s3.38,3.9,6,11.86c3,9,.86,18.85.83,18.93s3.82-2.45,6.42-3.76A62.91,62.91,0,0,1,93.7,90.47h0V99h0v52.09a52,52,0,0,0,0,6.51,7.9,7.9,0,0,0,2.08,4.85c1.31,1.63,9.23,11.34,15.93,16.91,6.54,5.43,7.72,5.32,10.2,2,1.56-2.09,1.42-3.75.19-5.44A85.14,85.14,0,0,0,180,95.26m-116-16A44.12,44.12,0,0,0,58.63,68c2.48-.56,7.69-.87,13.79,3.71a12.52,12.52,0,0,1,5,7.43c0,.22.07.44.11.66a7.42,7.42,0,0,1,.08,1,6.75,6.75,0,0,1-2.24,5.47c-3.95,3.19-8.77-.14-10-1.1a33.52,33.52,0,0,0-1.37-6M93.73,88h0c-14.27,0-23.86,3.84-28.15,6,.09-1,.15-2.23.15-3.53,0-.64,0-1.32-.07-2,3,1.72,7.49,2.92,11.24-.12a8.54,8.54,0,0,0,2.73-4.18l.16.19a9.53,9.53,0,0,0,6.88,3.1c3,0,5.49-1.83,7.09-3.44Zm0-7.88-.09.13s-3.08,4.7-7,4.7a7.15,7.15,0,0,1-5.09-2.31,6.71,6.71,0,0,1-1.62-3.22c0-.19-.06-.38-.09-.57a7.77,7.77,0,0,1,0-1.61c.65-10.78,7.48-15.62,14-15.64Zm0-21c-6.92,0-14.16,4.61-16,14.71a16.63,16.63,0,0,0-3.87-4C66.21,63.93,59.64,65,57.14,65.8A48.23,48.23,0,0,1,93.75,47.56Zm7.15,84.82c-1.24.16-2.49.27-3.76.33a39,39,0,0,0,3.76-1.82Zm6.31-1.19c-1.34.35-2.71.63-4.1.87v-2.45a49.62,49.62,0,0,0,4.1-2.84Zm6.3-2.13c-1.33.55-2.7,1-4.09,1.49V136.4a48.07,48.07,0,0,0,4.09-4Zm6.11-3.09c-1.26.76-2.56,1.46-3.89,2.1v-9.82c.76-1,1.52-2,2.24-3.12.59-.9,1.14-1.78,1.65-2.65Zm6.26-26.72V133a50,50,0,0,1-4,3V119.82c4-9.11,4.36-13.38,4.63-17.07Zm13.56-33.78a48.4,48.4,0,0,1,0,37.88Zm-5-8.91a47.1,47.1,0,0,1,2.82,4.41v46.89a48.33,48.33,0,0,1-3.49,5.4s0-53.68,0-54.52c0-1.68.72-2.18.72-2.18m-6.31-7.31a48.62,48.62,0,0,1,4.65,5.08,15.14,15.14,0,0,0-4.65-.6Zm3.2,7.3a43.71,43.71,0,0,0-5.35,11.23,33.52,33.52,0,0,0-1.37,6c-1.24,1-6.06,4.29-10,1.1a6.76,6.76,0,0,1-2.25-5.47c0-.35,0-.7.08-1s.08-.44.11-.66a12.49,12.49,0,0,1,5-7.43c6.1-4.58,11.3-4.27,13.79-3.71m-9.45-12.3a47.79,47.79,0,0,1,4,3v6.62a20,20,0,0,0-4,1.08Zm-6.11-3.49c1.33.64,2.63,1.34,3.89,2.09V67.42a25.55,25.55,0,0,0-3.57,2.26l-.32.26Zm-6.31-2.49c1.39.44,2.76.94,4.09,1.5V72a16.27,16.27,0,0,0-1.33,1.7,20.48,20.48,0,0,0-2.76-7.26Zm-6.31-1.51c1.39.24,2.76.53,4.1.88V63.65a15.42,15.42,0,0,0-4.1-3Zm-6.9-.66c1.58,0,3.15.15,4.7.34h0V59.78A15.8,15.8,0,0,0,96.21,59Zm0,14.84v-.85c6.47.05,13.26,4.89,13.92,15.64a8.55,8.55,0,0,1-.06,1.61l-.09.57a6.71,6.71,0,0,1-1.62,3.22,7.15,7.15,0,0,1-5.09,2.31c-3.93,0-7-4.65-7-4.7l-.05-.08Zm0,21.61c1.6,1.61,4.07,3.41,7.06,3.41a9.53,9.53,0,0,0,6.88-3.1c.06-.06.11-.13.16-.19A8.54,8.54,0,0,0,113,88.31c3.75,3,8.23,1.84,11.24.12,0,.69-.07,1.37-.07,2,0,1.31.07,2.5.16,3.53-4.28-2.17-13.87-6-28.16-6Zm0,6.46A62.87,62.87,0,0,1,121,95.21c.78.3,7.07,3.76,7.07,3.76s-2.78-9.9.18-18.93a63.66,63.66,0,0,1,3-7.2c.6-1.34,1.1-2.76,1.18-2.9a16.79,16.79,0,0,0-1,3.69v53.83a48.05,48.05,0,0,1-3.42,3.57V99H96.21Zm0,10.67h29c-.29,3.21-1.73,13.1-9,24.26a45.63,45.63,0,0,1-20,16.79Z"/></g></svg>